# xmcd
#
# Track frame offsets:
# 150
# 18929
# 36023
# 54380
# 69157
# 83110
# 100034
# 123902
# 143785
# 158302
# 178312
# 195972
# 210146
# 228159
# 248404
#
# Disc length: 3488 seconds
#
#
# Revision: 0
# Processed by: cddbd v1.5.2PL0 Copyright (c) Steve Scherf et al.
# Submitted via: FreeRIP 2.12 
#
DISCID=a50d9e0f
DTITLE=Bonnie Raitt - Mighty Tight Woman
DYEAR=1972
DGENRE=Blues
TTITLE0=Mighty Tight Woman
TTITLE1=Rollin' and Tumblin'
TTITLE2=Any Day Woman
TTITLE3=Woman Be Wise
TTITLE4=Thank You
TTITLE5=Bluebird
TTITLE6=Finest Lovin' Man
TTITLE7=Big Road
TTITLE8=Stayed Too Long At The Fair
TTITLE9=Under The Falling Sky
TTITLE10=Walkin' Blues
TTITLE11=Can't Find My Way Home
TTITLE12=Hurry Home Sweet Baby
TTITLE13=Blender Blues
TTITLE14=Since I Fell For You
EXTD=Live at Sigma Studios, Philadelphia 02/22/72
EXTT0=
EXTT1=
EXTT2=
EXTT3=
EXTT4=
EXTT5=
EXTT6=
EXTT7=
EXTT8=
EXTT9=
EXTT10=
EXTT11=
EXTT12=
EXTT13=
EXTT14=
PLAYORDER=
